# xmcd
# 
# Track frame offsets:
#     150
#     11183
#     28150
#     45938
#     63467
#     74407
#     92116
#     104608
#     119645
#     136007
#     149735
#     162414
#     177824
#     202277
#     215300
# 
# Disc length: 3103
# 
# Revision: 0
# Processed by: cddbd v1.5.2PL0 Copyright (c) Steve Scherf et al.
# Submitted via: fre:ac v1.0.31
# 
DISCID=e90c1d0f
DTITLE=Hof Blues Band - Mensch, bin ich froh
DYEAR=2001
DGENRE=Blues
TTITLE0=God Trying To Get Your Attention
TTITLE1=Tee Na
TTITLE2=Hollywood
TTITLE3=Midnight Special
TTITLE4=Ida Jane
TTITLE5=Rucksackbulle Kurt
TTITLE6=Nobody Knows You
TTITLE7=She Just Wants To Dance
TTITLE8=Mensch, bin ich froh
TTITLE9=Twenty Flight Rock
TTITLE10=San Francisco Bay
TTITLE11=Vitamine
TTITLE12=Every Day I Have The Blues
TTITLE13=Kloni
TTITLE14=My Babe
EXTD=
EXTT0=
EXTT1=
EXTT2=
EXTT3=
EXTT4=
EXTT5=
EXTT6=
EXTT7=
EXTT8=
EXTT9=
EXTT10=
EXTT11=
EXTT12=
EXTT13=
EXTT14=
PLAYORDER=
